<svg width="512" height="512" viewBox="0 0 512 512" xmlns="http://www.w3.org/2000/svg">
  <defs>
    <linearGradient id="bgGradient" x1="0%" y1="0%" x2="0%" y2="100%">
      <stop offset="0%" style="stop-color:#1a1a2e;stop-opacity:1" />
      <stop offset="100%" style="stop-color:#16213e;stop-opacity:1" />
    </linearGradient>
  </defs>
  
  <!-- Background -->
  <rect width="512" height="512" fill="url(#bgGradient)" rx="20%"/>
  
  <!-- Stars -->
  <g fill="#ffffff" opacity="0.9">
    <!-- Top left star -->
    <path d="M128 96 L132 108 L144 108 L134 116 L138 128 L128 120 L118 128 L122 116 L112 108 L124 108 Z" />
    <!-- Bottom left star -->
    <path d="M128 160 L132 172 L144 172 L134 180 L138 192 L128 184 L118 192 L122 180 L112 172 L124 172 Z" />
    <!-- Top right star -->
    <path d="M320 96 L324 108 L336 108 L326 116 L330 128 L320 120 L310 128 L314 116 L304 108 L316 108 Z" />
    <!-- Bottom right star -->
    <path d="M320 160 L324 172 L336 172 L326 180 L330 192 L320 184 L310 192 L314 180 L304 172 L316 172 Z" />
  </g>
  
  <!-- Moon (dark circle) -->
  <circle cx="256" cy="256" r="120" fill="#0f3460"/>
  
  <!-- Moon (white crescent) -->
  <path d="M 256 136 A 120 120 0 0 1 256 376 A 80 80 0 0 0 256 256 A 80 80 0 0 0 256 136 Z" fill="#ffffff"/>
  
  <!-- Small highlight on moon -->
  <circle cx="320" cy="280" r="8" fill="#ffffff" opacity="0.6"/>
</svg>

